<svg id="Layer_2" xmlns="http://www.w3.org/2000/svg" xmlns:xlink="http://www.w3.org/1999/xlink" viewBox="0 0 399.59 603"><defs><linearGradient id="linear-gradient" x1="30.9" y1="129.31" x2="366.55" y2="464.96" gradientUnits="userSpaceOnUse"><stop offset="0" stop-color="#ff6b00"/><stop offset=".15" stop-color="#ffe200"/><stop offset=".42" stop-color="#09ff00"/><stop offset=".69" stop-color="#1e72f7"/><stop offset=".86" stop-color="#863dda"/><stop offset="1" stop-color="#ff00b8"/></linearGradient></defs><g id="Layer_1-2"><path d="M326.04,226.46C244.77,160.54,218.02,60.34,237.56,0c0,0-266.83,83.42-234.91,261.24,28.33,117.2,201.83,205.13,165.96,341.76,198.57-39.67,315.35-238.98,157.43-376.54ZM189.16,71.28c17.08-4.68-7.94,36,46.98,117.56-34.27-18.33-87.38-52.32-117.56-76.68,0,0,53.49-36.2,70.58-40.88ZM84.11,142.87c.37-.38,47.21,39.5,97.01,68.95,61.01,36.09,127.22,63.15,127.22,63.15,25.32,25.94,37.83,59.8,37.83,59.8C205.53,317.08,54.21,186.5,54.21,186.5c0,0,16.15-29.31,29.9-43.63ZM214.38,537.35c-17.53-74.25-52.48-118.68-52.48-118.68,0,0,108.31,52.17,136.68,60.71,0,0-79.81,76.6-84.2,57.97ZM332.14,441.86s-118.93-38.39-253.22-126c-19.83-12.94-34.78-77.8-34.78-77.8,0,0,164.74,133.19,309.35,144.69,0,0,7.63,20.36-21.35,59.11Z" style="fill:url(#linear-gradient); stroke-width:0px;"/></g></svg>