<svg id="Layer_2" xmlns="http://www.w3.org/2000/svg" viewBox="0 0 80.01 79.21"><g id="Layer_1-2"><path d="M79.9,52.91v-.5c0-.6-.8-.8-1.1-.3-2.3,4.8-5.4,9.3-9.4,13.2-2.6,2.6-6.8,2.6-9.4,0s-2.6-6.8,0-9.4l10-10c12.4-12,13.3-30.9,2.6-43.9-.4-.5-1.2,0-1,.6,1.1,2.9,1.7,6.3,1.7,10,0,6.7-4.4,11.9-9.1,9.3-3.9-2.1-5.3-7-2.7-10.7.2-.3.5-.6.7-.9.4-.4,0-1-.5-1-6.6,1-11.7,8-11.7,16.5v6.4c0,3.4-2.5,6.5-5.8,6.9-4,.5-7.5-2.7-7.5-6.6,0-5.4,2.1-10.3,5.6-13.9,5.2-5,5.5-13,1-18.4-.3-.4-1-.2-1,.3-.3,3.9-2,7.7-4.9,10.7l-10.7,10.6c-4.2,4.5-6.7,10.6-6.7,17.4,0,4.6-2.2,8.3-5,8.3s-5-3.7-5-8.3c0-6.7,1.9-12.9,5-17.7.3-.5-.3-1.1-.8-.8C5.4,26.51,0,34.21,0,42.51v.4c.1,20.1,16.7,36.3,36.8,36.3h15c14.9,0,27.3-11.5,28.1-26.3Z" style="fill:#664baf; stroke-width:0px;"/></g></svg>