<svg xmlns="http://www.w3.org/2000/svg" fill="currentColor" viewBox="0 0 32 32" strokeWidth="1" stroke="currentColor" aria-hidden="true" data-slot="icon"><g data-name="light max"><path d="M16 9a7 7 0 1 0 7 7 7 7 0 0 0-7-7zm0 12a5 5 0 1 1 5-5 5 5 0 0 1-5 5zM16 7a1 1 0 0 0 1-1V3a1 1 0 0 0-2 0v3a1 1 0 0 0 1 1zM16 25a1 1 0 0 0-1 1v3a1 1 0 0 0 2 0v-3a1 1 0 0 0-1-1zM29 15h-3a1 1 0 0 0 0 2h3a1 1 0 0 0 0-2zM7 16a1 1 0 0 0-1-1H3a1 1 0 0 0 0 2h3a1 1 0 0 0 1-1zM23.07 9.93a1 1 0 0 0 .71-.29l2.12-2.13a1 1 0 1 0-1.41-1.41l-2.13 2.12a1 1 0 0 0 0 1.42 1 1 0 0 0 .71.29zM8.22 22.36 6.1 24.49a1 1 0 0 0 0 1.41 1 1 0 0 0 .71.29 1 1 0 0 0 .7-.29l2.13-2.12a1 1 0 0 0-1.42-1.42zM23.78 22.36a1 1 0 0 0-1.42 1.42l2.13 2.12a1 1 0 0 0 .7.29 1 1 0 0 0 .71-.29 1 1 0 0 0 0-1.41zM8.22 9.64a1 1 0 0 0 .71.29 1 1 0 0 0 .71-.29 1 1 0 0 0 0-1.42L7.51 6.1A1 1 0 0 0 6.1 7.51z" /></g></svg>